<?xml version="1.0" encoding="UTF-8"?>
<!--
  Wordmark — white-on-navy inverse variant.
  Navy field, white type, gold rule preserved. For dark contexts.
  Source: master, colours inverted; gold rule preserved; glyphs outlined.
-->
<svg xmlns="http://www.w3.org/2000/svg" viewBox="0 0 1000 360" role="img" aria-label="LSL Calculator by Australian Payroll Association — inverse">
  <!-- Glyphs outlined to <path> from Montserrat SemiBold + Source Sans 3 Regular (Task 2.5.1).
       No external font dependency — kills the third-party font request that previously leaked to every page. -->
  <rect width="1000" height="360" fill="#48608a"/>
  <!-- Primary mark: "LSL Calculator" — Montserrat SemiBold 96, letter-spacing -1.5, outlined to paths -->
  <path d="M212.92 170L165.30 170L165.30 102.80L177.78 102.80L177.78 159.44L212.92 159.44 M242.14 170.96Q234.27 170.96 227.07 168.70Q219.87 166.45 215.64 162.90L219.96 153.20Q223.99 156.46 229.95 158.53Q235.90 160.59 242.14 160.59Q250.01 160.59 253.51 158.10Q257.02 155.60 257.02 151.86Q257.02 148.78 254.86 146.91Q252.70 145.04 249.15 143.94Q245.59 142.83 241.32 141.87Q237.05 140.91 232.78 139.62Q228.51 138.32 224.95 136.26Q221.40 134.19 219.24 130.74Q217.08 127.28 217.08 121.90Q217.08 116.43 220.01 111.87Q222.94 107.31 228.94 104.58Q234.94 101.84 244.15 101.84Q250.20 101.84 256.15 103.38Q262.11 104.91 266.52 107.79L262.59 117.49Q258.07 114.80 253.27 113.50Q248.47 112.21 244.06 112.21Q236.28 112.21 232.87 114.90Q229.47 117.58 229.47 121.33Q229.47 124.40 231.63 126.22Q233.79 128.05 237.34 129.20Q240.89 130.35 245.16 131.26Q249.43 132.18 253.66 133.42Q257.88 134.67 261.43 136.78Q264.99 138.90 267.15 142.30Q269.31 145.71 269.31 150.99Q269.31 156.37 266.38 160.93Q263.45 165.49 257.40 168.22Q251.35 170.96 242.14 170.96 M327.81 170L280.19 170L280.19 102.80L292.67 102.80L292.67 159.44L327.81 159.44 M392.29 170.96Q384.61 170.96 378.04 168.42Q371.46 165.87 366.61 161.22Q361.77 156.56 359.08 150.22Q356.39 143.89 356.39 136.40Q356.39 128.91 359.08 122.58Q361.77 116.24 366.61 111.58Q371.46 106.93 378.04 104.38Q384.61 101.84 392.39 101.84Q400.65 101.84 407.46 104.72Q414.28 107.60 418.98 113.07L410.92 120.66Q403.62 112.78 392.97 112.78Q385.96 112.78 380.53 115.81Q375.11 118.83 372.04 124.16Q368.97 129.49 368.97 136.40Q368.97 143.31 372.04 148.64Q375.11 153.97 380.53 156.99Q385.96 160.02 392.97 160.02Q403.72 160.02 410.92 152.05L418.98 159.73Q414.28 165.20 407.46 168.08Q400.65 170.96 392.29 170.96 M470.38 170L459.05 170L459.05 163.86Q454.44 170.67 442.92 170.67Q434.09 170.67 428.95 166.35Q423.82 162.03 423.82 155.31Q423.82 150.99 425.88 147.54Q427.95 144.08 432.65 142.06Q437.35 140.05 445.13 140.05L458.38 140.05L458.38 139.28Q458.38 134 455.21 131.07Q452.04 128.14 445.61 128.14Q441.29 128.14 437.11 129.49Q432.94 130.83 430.06 133.23L425.35 124.50Q429.48 121.33 435.19 119.74Q440.91 118.16 447.05 118.16Q458.19 118.16 464.28 123.49Q470.38 128.82 470.38 139.95L470.38 170M458.38 153.97L458.38 148.02L445.99 148.02Q439.85 148.02 437.74 150.03Q435.63 152.05 435.63 154.83Q435.63 158.10 438.22 160.02Q440.81 161.94 445.42 161.94Q449.83 161.94 453.34 159.92Q456.84 157.90 458.38 153.97 M496.24 170L484.24 170L484.24 98.77L496.24 98.77 M534 170.67Q525.94 170.67 519.65 167.26Q513.36 163.86 509.81 157.95Q506.26 152.05 506.26 144.37Q506.26 136.69 509.81 130.78Q513.36 124.88 519.65 121.52Q525.94 118.16 534 118.16Q541.49 118.16 547.20 121.18Q552.91 124.21 555.89 130.06L546.67 135.44Q544.37 131.79 541.06 130.06Q537.75 128.34 533.91 128.34Q527.28 128.34 522.82 132.66Q518.35 136.98 518.35 144.37Q518.35 151.86 522.82 156.13Q527.28 160.40 533.91 160.40Q537.75 160.40 541.06 158.67Q544.37 156.94 546.67 153.30L555.89 158.67Q552.91 164.43 547.20 167.55Q541.49 170.67 534 170.67 M586.45 170.67Q576.66 170.67 570.52 165.15Q564.37 159.63 564.37 148.02L564.37 118.74L576.37 118.74L576.37 146.38Q576.37 153.39 579.54 156.75Q582.71 160.11 588.37 160.11Q594.71 160.11 598.55 156.22Q602.39 152.34 602.39 144.66L602.39 118.74L614.39 118.74L614.39 170L602.97 170L602.97 163.47Q600.09 166.93 595.77 168.80Q591.45 170.67 586.45 170.67 M640.63 170L628.63 170L628.63 98.77L640.63 98.77 M697.79 170L686.46 170L686.46 163.86Q681.85 170.67 670.33 170.67Q661.50 170.67 656.37 166.35Q651.23 162.03 651.23 155.31Q651.23 150.99 653.29 147.54Q655.36 144.08 660.06 142.06Q664.77 140.05 672.54 140.05L685.79 140.05L685.79 139.28Q685.79 134 682.62 131.07Q679.45 128.14 673.02 128.14Q668.70 128.14 664.53 129.49Q660.35 130.83 657.47 133.23L652.77 124.50Q656.89 121.33 662.61 119.74Q668.32 118.16 674.46 118.16Q685.60 118.16 691.69 123.49Q697.79 128.82 697.79 139.95L697.79 170M685.79 153.97L685.79 148.02L673.41 148.02Q667.26 148.02 665.15 150.03Q663.04 152.05 663.04 154.83Q663.04 158.10 665.63 160.02Q668.22 161.94 672.83 161.94Q677.25 161.94 680.75 159.92Q684.25 157.90 685.79 153.97 M730.95 170.67Q722.50 170.67 717.89 166.30Q713.28 161.94 713.28 153.39L713.28 128.34L704.83 128.34L704.83 118.74L713.28 118.74L713.28 107.41L725.28 107.41L725.28 118.74L739.01 118.74L739.01 128.34L725.28 128.34L725.28 153.10Q725.28 156.85 727.11 158.82Q728.93 160.78 732.39 160.78Q736.32 160.78 739.11 158.67L742.47 167.22Q740.26 168.94 737.23 169.81Q734.21 170.67 730.95 170.67 M773.89 170.67Q766.02 170.67 759.88 167.26Q753.73 163.86 750.18 157.95Q746.63 152.05 746.63 144.37Q746.63 136.69 750.18 130.78Q753.73 124.88 759.88 121.52Q766.02 118.16 773.89 118.16Q781.86 118.16 788.05 121.52Q794.25 124.88 797.75 130.78Q801.25 136.69 801.25 144.37Q801.25 152.05 797.75 157.95Q794.25 163.86 788.05 167.26Q781.86 170.67 773.89 170.67M773.89 160.40Q780.52 160.40 784.84 156.08Q789.16 151.76 789.16 144.37Q789.16 136.98 784.84 132.66Q780.52 128.34 773.89 128.34Q769.57 128.34 766.17 130.30Q762.76 132.27 760.74 135.87Q758.73 139.47 758.73 144.37Q758.73 149.26 760.74 152.86Q762.76 156.46 766.17 158.43Q769.57 160.40 773.89 160.40 M823.27 170L811.27 170L811.27 118.74L822.70 118.74L822.70 126.22Q827.98 118.16 840.94 118.16L840.94 129.58Q840.17 129.49 839.50 129.39Q838.83 129.30 838.15 129.30Q831.34 129.30 827.31 133.28Q823.27 137.26 823.27 145.14" fill="#ffffff"/>
  <!-- Gold accent rule, ~40% of wordmark width, signals connection to APA gold-square brand element -->
  <line x1="380" y1="205" x2="620" y2="205" stroke="#d9a428" stroke-width="4"/>
  <!-- Secondary mark: "by Australian Payroll Association" — Source Sans 3 Regular 26, letter-spacing 1.5, outlined to paths -->
  <path d="M306.83 265.31Q305.95 265.31 305 264.88Q304.05 264.45 303.22 263.70L303.14 263.70L302.96 265L301.24 265L301.24 246.49L303.37 246.49L303.37 251.53L303.32 253.82Q304.18 253.07 305.21 252.56Q306.23 252.05 307.27 252.05Q309.74 252.05 311.02 253.79Q312.29 255.54 312.29 258.47Q312.29 260.63 311.52 262.17Q310.76 263.70 309.52 264.51Q308.29 265.31 306.83 265.31M306.47 263.52Q308.03 263.52 309.05 262.18Q310.08 260.84 310.08 258.50Q310.08 256.42 309.31 255.13Q308.55 253.85 306.75 253.85Q305.95 253.85 305.12 254.29Q304.28 254.73 303.37 255.56L303.37 262.19Q304.21 262.92 305.02 263.22Q305.84 263.52 306.47 263.52 M317.33 270.43Q316.91 270.43 316.53 270.36Q316.16 270.28 315.85 270.17L316.31 268.51Q316.78 268.67 317.22 268.67Q318.29 268.67 318.99 267.90Q319.69 267.13 320.08 265.96L320.37 265.03L315.30 252.36L317.51 252.36L320.08 259.36Q320.37 260.16 320.69 261.10Q321.02 262.04 321.31 262.92L321.41 262.92Q321.70 262.06 321.96 261.13Q322.22 260.19 322.48 259.36L324.74 252.36L326.82 252.36L322.06 266.04Q321.62 267.29 321.01 268.28Q320.40 269.26 319.50 269.85Q318.60 270.43 317.33 270.43 M340.61 255.46L339.80 258.06L344.92 258.06L344.12 255.46Q343.65 254.03 343.23 252.61Q342.82 251.19 342.40 249.71L342.30 249.71Q341.91 251.19 341.49 252.61Q341.07 254.03 340.61 255.46M337.62 265L335.41 265L341.18 247.94L343.62 247.94L349.39 265L347.08 265L345.47 259.80L339.25 259.80 M356.80 265.31Q354.80 265.31 353.86 264.05Q352.92 262.79 352.92 260.37L352.92 252.36L355.08 252.36L355.08 260.09Q355.08 261.85 355.64 262.66Q356.20 263.47 357.45 263.47Q358.44 263.47 359.20 262.96Q359.97 262.45 360.85 261.33L360.85 252.36L362.99 252.36L362.99 265L361.22 265L361.04 263.02L360.96 263.02Q360.07 264.06 359.09 264.69Q358.10 265.31 356.80 265.31 M372.05 265.31Q370.67 265.31 369.45 264.83Q368.23 264.35 367.35 263.49L368.33 262.24Q369.17 262.92 370.06 263.28Q370.96 263.65 372.13 263.65Q373.38 263.65 374 263.06Q374.63 262.48 374.63 261.67Q374.63 261.02 374.21 260.59Q373.79 260.16 373.14 259.87Q372.49 259.57 371.77 259.31Q370.83 258.97 369.97 258.51Q369.11 258.06 368.58 257.37Q368.05 256.68 368.05 255.64Q368.05 254.11 369.20 253.08Q370.36 252.05 372.42 252.05Q373.59 252.05 374.60 252.45Q375.61 252.86 376.34 253.48L375.35 254.70Q374.70 254.24 373.99 253.98Q373.27 253.72 372.42 253.72Q371.22 253.72 370.66 254.26Q370.10 254.81 370.10 255.54Q370.10 256.39 370.86 256.84Q371.61 257.28 372.78 257.69Q373.77 258.03 374.66 258.50Q375.56 258.97 376.12 259.68Q376.68 260.40 376.68 261.54Q376.68 262.56 376.15 263.41Q375.61 264.27 374.59 264.79Q373.56 265.31 372.05 265.31 M385.12 265.23Q383.09 265.23 382.30 264.08Q381.51 262.92 381.51 261.02L381.51 254.11L379.64 254.11L379.64 252.49L381.61 252.36L381.87 248.31L383.67 248.31L383.67 252.36L387.07 252.36L387.07 254.11L383.67 254.11L383.67 261.07Q383.67 262.22 384.09 262.86Q384.52 263.49 385.62 263.49Q385.95 263.49 386.32 263.43Q386.68 263.36 387.05 263.18L387.49 264.69Q386.99 264.95 386.38 265.09Q385.77 265.23 385.12 265.23 M393.56 265L391.43 265L391.43 252.36L393.20 252.36L393.38 254.65L393.46 254.65Q394.08 253.46 395.02 252.75Q395.96 252.05 397.05 252.05Q397.80 252.05 398.40 252.31L397.93 254.13Q397.65 254.05 397.40 254.01Q397.15 253.98 396.76 253.98Q395.96 253.98 395.08 254.63Q394.21 255.28 393.56 256.89 M404.87 265.31Q403.28 265.31 402.21 264.38Q401.15 263.44 401.15 261.72Q401.15 259.59 403.02 258.50Q404.89 257.41 408.95 256.97Q408.95 256.16 408.71 255.46Q408.48 254.76 407.92 254.30Q407.36 253.85 406.32 253.85Q405.23 253.85 404.27 254.26Q403.31 254.68 402.55 255.15L401.72 253.69Q402.60 253.09 403.89 252.57Q405.18 252.05 406.69 252.05Q409 252.05 410.04 253.47Q411.08 254.89 411.08 257.25L411.08 265L409.31 265L409.13 263.49L409.05 263.49Q408.12 264.25 407.09 264.78Q406.06 265.31 404.87 265.31M405.46 263.54Q406.37 263.54 407.21 263.13Q408.04 262.71 408.95 261.91L408.95 258.50Q406.82 258.73 405.57 259.15Q404.32 259.57 403.79 260.16Q403.25 260.76 403.25 261.59Q403.25 262.63 403.90 263.09Q404.55 263.54 405.46 263.54 M418.82 265.23Q417.62 265.23 417.09 264.49Q416.56 263.75 416.56 262.40L416.56 246.49L418.69 246.49L418.69 262.56Q418.69 263.05 418.87 263.26Q419.05 263.47 419.31 263.47Q419.42 263.47 419.51 263.45Q419.60 263.44 419.75 263.41L420.04 265.03Q419.57 265.23 418.82 265.23 M426.82 265L424.69 265L424.69 252.36L426.82 252.36L426.82 265M425.75 249.76Q425.13 249.76 424.73 249.39Q424.32 249.01 424.32 248.36Q424.32 247.74 424.73 247.35Q425.13 246.96 425.75 246.96Q426.38 246.96 426.78 247.35Q427.18 247.74 427.18 248.36Q427.18 249.01 426.78 249.39Q426.38 249.76 425.75 249.76 M435.50 265.31Q433.91 265.31 432.84 264.38Q431.78 263.44 431.78 261.72Q431.78 259.59 433.65 258.50Q435.52 257.41 439.58 256.97Q439.58 256.16 439.34 255.46Q439.11 254.76 438.55 254.30Q437.99 253.85 436.95 253.85Q435.86 253.85 434.90 254.26Q433.94 254.68 433.18 255.15L432.35 253.69Q433.23 253.09 434.52 252.57Q435.81 252.05 437.31 252.05Q439.63 252.05 440.67 253.47Q441.71 254.89 441.71 257.25L441.71 265L439.94 265L439.76 263.49L439.68 263.49Q438.75 264.25 437.72 264.78Q436.69 265.31 435.50 265.31M436.09 263.54Q437 263.54 437.84 263.13Q438.67 262.71 439.58 261.91L439.58 258.50Q437.45 258.73 436.20 259.15Q434.95 259.57 434.42 260.16Q433.88 260.76 433.88 261.59Q433.88 262.63 434.53 263.09Q435.18 263.54 436.09 263.54 M449.32 265L447.19 265L447.19 252.36L448.95 252.36L449.14 254.18L449.22 254.18Q450.13 253.27 451.14 252.66Q452.15 252.05 453.45 252.05Q455.45 252.05 456.38 253.31Q457.30 254.57 457.30 256.99L457.30 265L455.17 265L455.17 257.28Q455.17 255.51 454.60 254.70Q454.03 253.90 452.78 253.90Q451.81 253.90 451.05 254.39Q450.28 254.89 449.32 255.85 M471.97 265L469.82 265L469.82 247.94L474.68 247.94Q476.60 247.94 478.03 248.41Q479.46 248.88 480.27 249.99Q481.07 251.09 481.07 252.96Q481.07 255.64 479.33 256.94Q477.59 258.24 474.78 258.24L471.97 258.24L471.97 265M471.97 249.69L471.97 256.47L474.52 256.47Q476.76 256.47 477.84 255.63Q478.92 254.78 478.92 252.96Q478.92 251.12 477.79 250.40Q476.65 249.69 474.42 249.69 M488.74 265.31Q487.15 265.31 486.08 264.38Q485.02 263.44 485.02 261.72Q485.02 259.59 486.89 258.50Q488.76 257.41 492.82 256.97Q492.82 256.16 492.58 255.46Q492.35 254.76 491.79 254.30Q491.23 253.85 490.19 253.85Q489.10 253.85 488.14 254.26Q487.18 254.68 486.42 255.15L485.59 253.69Q486.47 253.09 487.76 252.57Q489.05 252.05 490.56 252.05Q492.87 252.05 493.91 253.47Q494.95 254.89 494.95 257.25L494.95 265L493.18 265L493 263.49L492.92 263.49Q491.99 264.25 490.96 264.78Q489.93 265.31 488.74 265.31M489.33 263.54Q490.25 263.54 491.08 263.13Q491.91 262.71 492.82 261.91L492.82 258.50Q490.69 258.73 489.44 259.15Q488.19 259.57 487.66 260.16Q487.13 260.76 487.13 261.59Q487.13 262.63 487.77 263.09Q488.43 263.54 489.33 263.54 M500.64 270.43Q500.22 270.43 499.84 270.36Q499.47 270.28 499.15 270.17L499.62 268.51Q500.09 268.67 500.53 268.67Q501.60 268.67 502.30 267.90Q503 267.13 503.39 265.96L503.68 265.03L498.61 252.36L500.82 252.36L503.39 259.36Q503.68 260.16 504 261.10Q504.33 262.04 504.61 262.92L504.72 262.92Q505 262.06 505.26 261.13Q505.52 260.19 505.78 259.36L508.05 252.36L510.13 252.36L505.37 266.04Q504.93 267.29 504.32 268.28Q503.70 269.26 502.81 269.85Q501.91 270.43 500.64 270.43 M516.20 265L514.07 265L514.07 252.36L515.84 252.36L516.02 254.65L516.10 254.65Q516.72 253.46 517.66 252.75Q518.59 252.05 519.69 252.05Q520.44 252.05 521.04 252.31L520.57 254.13Q520.28 254.05 520.04 254.01Q519.79 253.98 519.40 253.98Q518.59 253.98 517.72 254.63Q516.85 255.28 516.20 256.89 M529.51 265.31Q527.97 265.31 526.63 264.53Q525.29 263.75 524.48 262.27Q523.66 260.79 523.66 258.71Q523.66 256.58 524.48 255.09Q525.29 253.61 526.63 252.83Q527.97 252.05 529.51 252.05Q531.07 252.05 532.39 252.83Q533.72 253.61 534.54 255.09Q535.36 256.58 535.36 258.71Q535.36 260.79 534.54 262.27Q533.72 263.75 532.39 264.53Q531.07 265.31 529.51 265.31M529.51 263.54Q531.14 263.54 532.15 262.20Q533.15 260.87 533.15 258.71Q533.15 256.52 532.15 255.17Q531.14 253.82 529.51 253.82Q527.89 253.82 526.88 255.17Q525.87 256.52 525.87 258.71Q525.87 260.87 526.88 262.20Q527.89 263.54 529.51 263.54 M542.45 265.23Q541.25 265.23 540.72 264.49Q540.18 263.75 540.18 262.40L540.18 246.49L542.32 246.49L542.32 262.56Q542.32 263.05 542.50 263.26Q542.68 263.47 542.94 263.47Q543.04 263.47 543.14 263.45Q543.23 263.44 543.38 263.41L543.67 265.03Q543.20 265.23 542.45 265.23 M550.58 265.23Q549.38 265.23 548.85 264.49Q548.31 263.75 548.31 262.40L548.31 246.49L550.45 246.49L550.45 262.56Q550.45 263.05 550.63 263.26Q550.81 263.47 551.07 263.47Q551.17 263.47 551.27 263.45Q551.36 263.44 551.51 263.41L551.80 265.03Q551.33 265.23 550.58 265.23 M566.29 255.46L565.49 258.06L570.61 258.06L569.80 255.46Q569.33 254.03 568.92 252.61Q568.50 251.19 568.09 249.71L567.98 249.71Q567.59 251.19 567.18 252.61Q566.76 254.03 566.29 255.46M563.30 265L561.09 265L566.86 247.94L569.31 247.94L575.08 265L572.76 265L571.15 259.80L564.94 259.80 M582.09 265.31Q580.71 265.31 579.49 264.83Q578.27 264.35 577.38 263.49L578.37 262.24Q579.21 262.92 580.10 263.28Q581 263.65 582.17 263.65Q583.42 263.65 584.04 263.06Q584.67 262.48 584.67 261.67Q584.67 261.02 584.25 260.59Q583.83 260.16 583.18 259.87Q582.53 259.57 581.81 259.31Q580.87 258.97 580.01 258.51Q579.15 258.06 578.62 257.37Q578.09 256.68 578.09 255.64Q578.09 254.11 579.24 253.08Q580.40 252.05 582.46 252.05Q583.63 252.05 584.64 252.45Q585.65 252.86 586.38 253.48L585.39 254.70Q584.74 254.24 584.03 253.98Q583.31 253.72 582.46 253.72Q581.26 253.72 580.70 254.26Q580.14 254.81 580.14 255.54Q580.14 256.39 580.90 256.84Q581.65 257.28 582.82 257.69Q583.81 258.03 584.70 258.50Q585.60 258.97 586.16 259.68Q586.72 260.40 586.72 261.54Q586.72 262.56 586.19 263.41Q585.65 264.27 584.63 264.79Q583.60 265.31 582.09 265.31 M594.49 265.31Q593.11 265.31 591.88 264.83Q590.66 264.35 589.78 263.49L590.77 262.24Q591.60 262.92 592.50 263.28Q593.39 263.65 594.56 263.65Q595.81 263.65 596.44 263.06Q597.06 262.48 597.06 261.67Q597.06 261.02 596.64 260.59Q596.23 260.16 595.58 259.87Q594.93 259.57 594.20 259.31Q593.26 258.97 592.41 258.51Q591.55 258.06 591.01 257.37Q590.48 256.68 590.48 255.64Q590.48 254.11 591.64 253.08Q592.80 252.05 594.85 252.05Q596.02 252.05 597.03 252.45Q598.05 252.86 598.78 253.48L597.79 254.70Q597.14 254.24 596.42 253.98Q595.71 253.72 594.85 253.72Q593.65 253.72 593.09 254.26Q592.54 254.81 592.54 255.54Q592.54 256.39 593.29 256.84Q594.04 257.28 595.21 257.69Q596.20 258.03 597.10 258.50Q598 258.97 598.55 259.68Q599.11 260.40 599.11 261.54Q599.11 262.56 598.58 263.41Q598.05 264.27 597.02 264.79Q595.99 265.31 594.49 265.31 M608.49 265.31Q606.96 265.31 605.62 264.53Q604.28 263.75 603.46 262.27Q602.64 260.79 602.64 258.71Q602.64 256.58 603.46 255.09Q604.28 253.61 605.62 252.83Q606.96 252.05 608.49 252.05Q610.05 252.05 611.38 252.83Q612.70 253.61 613.52 255.09Q614.34 256.58 614.34 258.71Q614.34 260.79 613.52 262.27Q612.70 263.75 611.38 264.53Q610.05 265.31 608.49 265.31M608.49 263.54Q610.13 263.54 611.13 262.20Q612.13 260.87 612.13 258.71Q612.13 256.52 611.13 255.17Q610.13 253.82 608.49 253.82Q606.88 253.82 605.87 255.17Q604.85 256.52 604.85 258.71Q604.85 260.87 605.87 262.20Q606.88 263.54 608.49 263.54 M624.19 265.31Q622.50 265.31 621.14 264.53Q619.79 263.75 619.01 262.27Q618.23 260.79 618.23 258.71Q618.23 256.58 619.08 255.09Q619.92 253.61 621.31 252.83Q622.71 252.05 624.32 252.05Q625.57 252.05 626.46 252.47Q627.36 252.88 628.01 253.53L626.94 254.83Q626.45 254.39 625.84 254.11Q625.23 253.82 624.39 253.82Q623.28 253.82 622.38 254.43Q621.48 255.04 620.96 256.15Q620.44 257.25 620.44 258.71Q620.44 260.87 621.54 262.20Q622.63 263.54 624.37 263.54Q625.23 263.54 625.98 263.21Q626.74 262.87 627.31 262.35L628.24 263.65Q627.46 264.40 626.44 264.86Q625.41 265.31 624.19 265.31 M634.66 265L632.52 265L632.52 252.36L634.66 252.36L634.66 265M633.59 249.76Q632.97 249.76 632.56 249.39Q632.16 249.01 632.16 248.36Q632.16 247.74 632.56 247.35Q632.97 246.96 633.59 246.96Q634.22 246.96 634.62 247.35Q635.02 247.74 635.02 248.36Q635.02 249.01 634.62 249.39Q634.22 249.76 633.59 249.76 M643.33 265.31Q641.75 265.31 640.68 264.38Q639.62 263.44 639.62 261.72Q639.62 259.59 641.49 258.50Q643.36 257.41 647.41 256.97Q647.41 256.16 647.18 255.46Q646.95 254.76 646.39 254.30Q645.83 253.85 644.79 253.85Q643.70 253.85 642.74 254.26Q641.77 254.68 641.02 255.15L640.19 253.69Q641.07 253.09 642.36 252.57Q643.64 252.05 645.15 252.05Q647.47 252.05 648.51 253.47Q649.55 254.89 649.55 257.25L649.55 265L647.78 265L647.60 263.49L647.52 263.49Q646.58 264.25 645.56 264.78Q644.53 265.31 643.33 265.31M643.93 263.54Q644.84 263.54 645.67 263.13Q646.50 262.71 647.41 261.91L647.41 258.50Q645.28 258.73 644.03 259.15Q642.79 259.57 642.25 260.16Q641.72 260.76 641.72 261.59Q641.72 262.63 642.37 263.09Q643.02 263.54 643.93 263.54 M659 265.23Q656.98 265.23 656.18 264.08Q655.39 262.92 655.39 261.02L655.39 254.11L653.52 254.11L653.52 252.49L655.49 252.36L655.75 248.31L657.55 248.31L657.55 252.36L660.95 252.36L660.95 254.11L657.55 254.11L657.55 261.07Q657.55 262.22 657.98 262.86Q658.40 263.49 659.50 263.49Q659.84 263.49 660.20 263.43Q660.56 263.36 660.93 263.18L661.37 264.69Q660.88 264.95 660.26 265.09Q659.65 265.23 659 265.23 M667.45 265L665.31 265L665.31 252.36L667.45 252.36L667.45 265M666.38 249.76Q665.75 249.76 665.35 249.39Q664.95 249.01 664.95 248.36Q664.95 247.74 665.35 247.35Q665.75 246.96 666.38 246.96Q667 246.96 667.41 247.35Q667.81 247.74 667.81 248.36Q667.81 249.01 667.41 249.39Q667 249.76 666.38 249.76 M678.12 265.31Q676.59 265.31 675.25 264.53Q673.91 263.75 673.09 262.27Q672.27 260.79 672.27 258.71Q672.27 256.58 673.09 255.09Q673.91 253.61 675.25 252.83Q676.59 252.05 678.12 252.05Q679.68 252.05 681.01 252.83Q682.34 253.61 683.15 255.09Q683.97 256.58 683.97 258.71Q683.97 260.79 683.15 262.27Q682.34 263.75 681.01 264.53Q679.68 265.31 678.12 265.31M678.12 263.54Q679.76 263.54 680.76 262.20Q681.76 260.87 681.76 258.71Q681.76 256.52 680.76 255.17Q679.76 253.82 678.12 253.82Q676.51 253.82 675.50 255.17Q674.48 256.52 674.48 258.71Q674.48 260.87 675.50 262.20Q676.51 263.54 678.12 263.54 M690.93 265L688.80 265L688.80 252.36L690.57 252.36L690.75 254.18L690.83 254.18Q691.74 253.27 692.75 252.66Q693.77 252.05 695.07 252.05Q697.07 252.05 697.99 253.31Q698.91 254.57 698.91 256.99L698.91 265L696.78 265L696.78 257.28Q696.78 255.51 696.21 254.70Q695.64 253.90 694.39 253.90Q693.43 253.90 692.66 254.39Q691.89 254.89 690.93 255.85" fill="#ffffff"/>
</svg>
